<svg width="100%" height="183" viewBox="0 0 438 183" fill="none" xmlns="http://www.w3.org/2000/svg">
<path d="M235.705 51.5369V53.5893C235.705 55.925 235.235 58.1088 234.29 60.1448C233.345 62.1808 232.082 63.9583 230.494 65.4853C228.922 67.0246 227.086 68.2314 224.986 69.1058C222.885 69.9801 220.674 70.4152 218.339 70.4152H213.383C211.048 70.4152 208.836 69.9801 206.736 69.1058C204.636 68.2314 202.796 67.0246 201.211 65.4853C199.623 63.9583 198.36 62.1767 197.415 60.1448C196.47 58.1088 196 55.925 196 53.5893V50.8678L202.193 49.8703V53.5893C202.193 55.1286 202.507 56.5571 203.138 57.8748C203.753 59.1925 204.595 60.3542 205.655 61.3558C206.715 62.3615 207.941 63.1496 209.331 63.7243C210.722 64.299 212.182 64.5863 213.717 64.5863H218.046C219.58 64.5863 221.033 64.299 222.411 63.7243C223.789 63.1496 225.006 62.3615 226.071 61.3558C227.119 60.3501 227.961 59.1884 228.588 57.8748C229.202 56.5571 229.512 55.1286 229.512 53.5893V51.5369C229.512 49.1889 229.054 47.2308 228.134 45.6669C227.205 44.1152 225.972 42.7852 224.437 41.6769C222.89 40.5809 221.152 39.6491 219.226 38.8774C217.286 38.1221 215.293 37.3586 213.247 36.5869C211.2 35.8316 209.208 34.9901 207.268 34.0624C205.329 33.1388 203.592 31.9812 202.057 30.5978C200.522 29.2145 199.288 27.5192 198.36 25.5119C197.432 23.5046 196.966 21.0293 196.966 18.0985V16.8259C196.966 14.4903 197.403 12.3065 198.282 10.2704C199.161 8.23441 200.374 6.45699 201.921 4.92997C203.456 3.39064 205.251 2.1838 207.31 1.30946C209.381 0.435118 211.584 0 213.92 0H218.343C220.678 0 222.865 0.435118 224.911 1.30946C226.958 2.1838 228.744 3.39064 230.279 4.92997C231.827 6.45699 233.04 8.23851 233.919 10.2704C234.797 12.3065 235.235 14.4903 235.235 16.8259V18.5869L229.042 19.5844V16.8259C229.042 15.2866 228.753 13.8581 228.175 12.5404C227.597 11.2228 226.813 10.0693 225.815 9.07591C224.833 8.08252 223.669 7.3026 222.333 6.72791C221.008 6.15323 219.58 5.86588 218.046 5.86588H214.212C212.665 5.86588 211.229 6.15323 209.905 6.72791C208.58 7.3026 207.413 8.08252 206.406 9.07591C205.395 10.0693 204.603 11.2228 204.025 12.5404C203.448 13.8581 203.159 15.2866 203.159 16.8259V18.0985C203.159 20.3028 203.625 22.1541 204.553 23.6565C205.482 25.1424 206.715 26.4191 208.25 27.4904C209.785 28.5618 211.522 29.4854 213.462 30.2694C215.388 31.0535 217.381 31.8498 219.44 32.6585C221.487 33.4671 223.48 34.362 225.419 35.339C227.346 36.3036 229.083 37.4981 230.63 38.9184C232.165 40.3264 233.399 42.0546 234.327 44.1029C235.247 46.1389 235.705 48.6183 235.705 51.5369ZM253.955 69.4588H248.054V0.960544H253.955V69.4588ZM276.099 8.78446H269.217V0.960544H276.099V8.78856V8.78446ZM275.608 69.4588H269.708V20.545H275.608V69.4588ZM322.237 56.0358C322.237 58.0062 321.857 59.8698 321.098 61.6308C320.351 63.3795 319.324 64.9024 318.012 66.2077C316.7 67.5131 315.165 68.5352 313.411 69.2782C311.641 70.0335 309.768 70.4111 307.787 70.4111H303.855C301.862 70.4111 299.985 70.0335 298.232 69.2782C296.474 68.5352 294.943 67.5131 293.631 66.2077C292.319 64.9024 291.283 63.3754 290.524 61.6308C289.777 59.8698 289.402 58.0062 289.402 56.0358V33.9638C289.402 31.9935 289.777 30.1299 290.524 28.3689C291.283 26.6202 292.319 25.0973 293.631 23.7919C294.943 22.4866 296.478 21.4645 298.232 20.7215C299.989 19.9662 301.862 19.5885 303.855 19.5885H307.787C309.768 19.5885 311.641 19.9662 313.411 20.7215C315.169 21.4645 316.7 22.4866 318.012 23.7919C319.324 25.0973 320.351 26.6243 321.098 28.3689C321.857 30.1299 322.237 31.9935 322.237 33.9638V45.4698H295.294V56.3683C295.294 57.5423 295.517 58.6506 295.962 59.6933C296.408 60.7236 297.018 61.6226 297.79 62.3943C298.562 63.1496 299.469 63.7489 300.505 64.1963C301.541 64.652 302.655 64.8819 303.847 64.8819H307.779C308.959 64.8819 310.073 64.652 311.121 64.1963C312.157 63.753 313.061 63.1537 313.836 62.3943C314.595 61.6267 315.198 60.7236 315.648 59.6933C316.093 58.6506 316.316 57.5423 316.316 56.3683V53.1214L322.237 54.0819V56.0399V56.0358ZM316.316 40.8929V33.6355C316.316 32.4615 316.093 31.3531 315.648 30.3105C315.202 29.2802 314.6 28.3812 313.836 27.6095C313.065 26.8542 312.157 26.2549 311.121 25.8074C310.073 25.3518 308.959 25.1219 307.779 25.1219H303.847C302.655 25.1219 301.541 25.3518 300.505 25.8074C299.469 26.2508 298.566 26.8501 297.79 27.6095C297.018 28.3771 296.408 29.2802 295.962 30.3105C295.517 31.3531 295.294 32.4615 295.294 33.6355V40.8929H316.316ZM366.881 69.4588H360.981V33.6355C360.981 32.4615 360.758 31.3531 360.312 30.3105C359.867 29.2802 359.256 28.3812 358.484 27.6095C357.713 26.8542 356.805 26.2549 355.77 25.8074C354.734 25.3518 353.62 25.1219 352.427 25.1219H348.495C347.315 25.1219 346.209 25.3518 345.17 25.8074C344.122 26.2508 343.218 26.8501 342.455 27.6095C341.683 28.3771 341.072 29.2802 340.627 30.3105C340.181 31.3531 339.958 32.4615 339.958 33.6355V69.4588H334.038V20.545H336.006L339.232 25.516C340.581 23.7016 342.273 22.2608 344.307 21.1935C346.337 20.1222 348.557 19.5885 350.954 19.5885H352.427C354.42 19.5885 356.298 19.9662 358.051 20.7215C359.809 21.4645 361.34 22.4866 362.652 23.7919C363.976 25.0973 365.012 26.6243 365.759 28.3689C366.506 30.1299 366.881 31.9935 366.881 33.9638V69.4547V69.4588ZM401.986 69.4588H396.597C394.814 69.4588 393.131 69.1263 391.542 68.4613C389.954 67.784 388.58 66.8563 387.412 65.6823C386.245 64.5083 385.312 63.1373 384.619 61.5733C383.938 60.0217 383.596 58.351 383.596 56.5654V26.1399H374.766V20.545H383.596V8.78446L389.496 7.84444V20.5409H401.986V26.1358H389.496V56.8363C389.496 57.8297 389.678 58.7492 390.045 59.5948C390.412 60.4404 390.915 61.1793 391.559 61.8073C392.203 62.4477 392.954 62.9485 393.82 63.3138C394.687 63.6791 395.611 63.8597 396.593 63.8597H401.981V69.4547L401.986 69.4588Z" fill="currentColor"/>
<path d="M229.512 163.412H196.965V94.9133H203.159V157.542H229.512V163.412ZM245.756 102.737H238.874V94.9092H245.756V102.737ZM245.265 163.412H239.365V114.498H245.265V163.412ZM291.894 149.989C291.894 151.959 291.514 153.823 290.755 155.584C290.008 157.332 288.981 158.855 287.669 160.16C286.357 161.466 284.822 162.488 283.068 163.231C281.298 163.986 279.425 164.364 277.444 164.364H273.512C271.519 164.364 269.642 163.986 267.888 163.231C266.131 162.488 264.6 161.466 263.288 160.16C261.976 158.855 260.94 157.328 260.181 155.584C259.434 153.823 259.058 151.959 259.058 149.989V94.9092H264.959V118.603C266.308 117.01 267.93 115.77 269.815 114.884C271.705 113.985 273.747 113.533 275.951 113.533H277.444C279.425 113.533 281.298 113.911 283.068 114.666C284.826 115.409 286.357 116.431 287.669 117.736C288.981 119.042 290.008 120.569 290.755 122.313C291.514 124.074 291.894 125.938 291.894 127.908V149.98V149.989ZM285.973 150.321V127.584C285.973 126.41 285.75 125.302 285.304 124.259C284.859 123.229 284.256 122.33 283.493 121.558C282.721 120.803 281.814 120.203 280.778 119.756C279.73 119.3 278.616 119.071 277.436 119.071H273.504C272.311 119.071 271.197 119.3 270.162 119.756C269.126 120.199 268.222 120.799 267.447 121.558C266.688 122.326 266.077 123.229 265.619 124.259C265.173 125.302 264.951 126.41 264.951 127.584V150.321C264.951 151.495 265.173 152.603 265.619 153.646C266.077 154.676 266.688 155.575 267.447 156.347C268.218 157.102 269.126 157.702 270.162 158.149C271.197 158.605 272.311 158.835 273.504 158.835H277.436C278.616 158.835 279.73 158.605 280.778 158.149C281.814 157.706 282.717 157.106 283.493 156.347C284.252 155.579 284.855 154.676 285.304 153.646C285.75 152.603 285.973 151.495 285.973 150.321ZM324.069 120.093H318.148C316.968 120.093 315.862 120.314 314.822 120.758C313.774 121.201 312.871 121.808 312.107 122.576C311.336 123.331 310.725 124.234 310.279 125.277C309.834 126.307 309.611 127.412 309.611 128.586V163.412H303.69V114.498H305.658L308.885 119.469C310.234 117.654 311.926 116.214 313.96 115.146C315.99 114.075 318.21 113.541 320.607 113.541H324.069V120.097V120.093ZM364.781 163.412H362.813L359.549 158.539C358.2 160.288 356.516 161.696 354.494 162.767C352.489 163.838 350.282 164.372 347.868 164.372H346.395C344.402 164.372 342.525 163.994 340.771 163.239C339.013 162.496 337.483 161.474 336.171 160.169C334.858 158.863 333.823 157.336 333.064 155.592C332.317 153.831 331.941 151.967 331.941 149.997V149.529C331.941 147.546 332.317 145.678 333.064 143.934C333.823 142.185 334.858 140.662 336.171 139.357C337.483 138.039 339.017 137.009 340.771 136.266C342.525 135.523 344.402 135.149 346.395 135.149H358.884V127.596C358.884 126.422 358.653 125.314 358.195 124.271C357.75 123.241 357.147 122.342 356.384 121.57C355.613 120.815 354.705 120.216 353.669 119.768C352.621 119.313 351.507 119.083 350.327 119.083H346.865C345.685 119.083 344.579 119.313 343.54 119.768C342.492 120.212 341.588 120.811 340.825 121.57C340.053 122.338 339.442 123.241 338.997 124.271C338.551 125.314 338.328 126.422 338.328 127.596V129.357L332.408 128.397V127.929C332.408 125.959 332.787 124.095 333.546 122.334C334.293 120.585 335.321 119.062 336.633 117.757C337.945 116.452 339.484 115.43 341.254 114.687C343.012 113.931 344.877 113.554 346.857 113.554H350.319C352.299 113.554 354.173 113.931 355.943 114.687C357.7 115.43 359.231 116.452 360.543 117.757C361.855 119.062 362.883 120.589 363.629 122.334C364.389 124.095 364.768 125.959 364.768 127.929V163.42L364.781 163.412ZM358.88 150.321V139.718H346.391C345.198 139.718 344.084 139.94 343.049 140.383C342.013 140.826 341.109 141.438 340.334 142.222C339.575 143.006 338.964 143.909 338.506 144.944C338.06 145.986 337.837 147.095 337.837 148.269V150.321C337.837 151.495 338.06 152.603 338.506 153.646C338.964 154.676 339.575 155.575 340.334 156.347C341.105 157.102 342.013 157.702 343.049 158.149C344.084 158.605 345.198 158.835 346.391 158.835H350.323C351.503 158.835 352.617 158.605 353.665 158.149C354.701 157.706 355.604 157.106 356.38 156.347C357.139 155.579 357.742 154.676 358.191 153.646C358.649 152.603 358.88 151.495 358.88 150.321ZM396.956 120.093H391.035C389.855 120.093 388.749 120.314 387.709 120.758C386.661 121.201 385.758 121.808 384.994 122.576C384.223 123.331 383.612 124.234 383.166 125.277C382.721 126.307 382.498 127.412 382.498 128.586V163.412H376.577V114.498H378.562L381.768 119.469C383.117 117.654 384.809 116.214 386.843 115.146C388.873 114.075 391.093 113.541 393.49 113.541H396.952V120.097L396.956 120.093ZM437.668 114.498L412.787 182.996H407.085L415.816 159.204L399.885 114.498H405.785L418.609 151.573L418.787 154.098L418.985 151.573L431.767 114.498H437.668Z" fill="currentColor"/>
<path d="M92.6242 6C71.6862 6 52.0096 14.1123 37.2037 28.8375L22.9553 43.0127C8.15411 57.7426 0 77.323 0 98.1488C0 118.975 8.15411 138.555 22.9553 153.285C37.7564 168.01 57.4378 176.122 78.3758 176.122C99.3138 176.122 118.99 168.01 133.796 153.285L148.045 139.11C162.846 124.384 171 104.804 171 83.9735C171 63.143 162.846 43.5673 148.045 28.8375C133.244 14.1123 113.562 6 92.6242 6ZM127.078 146.601C100.221 173.316 56.5307 173.316 29.6732 146.601C2.8204 119.886 2.8204 76.4112 29.6732 49.6962C43.0996 36.3387 60.7401 29.6553 78.3758 29.6553C96.0115 29.6553 113.647 36.334 127.078 49.6962C153.931 76.4112 153.931 119.886 127.078 146.601ZM155.533 111.84C156.336 107.319 156.747 102.736 156.752 98.1488C156.752 77.3183 148.597 57.7426 133.796 43.0127C118.995 28.2828 99.3138 20.1753 78.3758 20.1753C73.7129 20.1753 69.1115 20.5983 64.614 21.3879C73.4342 17.4916 82.9772 15.4753 92.6242 15.48C110.26 15.48 127.896 22.1587 141.327 35.5209C162.033 56.1211 166.758 86.6807 155.528 111.845" fill="#369cc5"/>
<path d="M78.3762 39.0789C66.5088 39.0648 54.9154 42.6086 45.1078 49.2498C44.9425 49.3485 44.7866 49.4566 44.6401 49.5788C29.1634 60.2525 19.0015 78.0375 19.0015 98.1489C19.0015 130.72 45.6369 157.219 78.3762 157.219C98.5961 157.219 116.478 147.104 127.202 131.707C127.32 131.557 127.433 131.411 127.528 131.251C134.198 121.489 137.76 109.955 137.751 98.1489C137.751 65.5777 111.115 39.0789 78.3762 39.0789ZM78.3762 147.767C50.8714 147.767 28.502 125.508 28.502 98.1489C28.502 90.14 30.4295 82.5777 33.831 75.8754C33.453 78.5592 33.2593 81.2664 33.2499 83.9736C33.2499 116.545 59.8854 143.044 92.6246 143.044C95.3647 143.044 98.0812 142.832 100.765 142.465C93.8246 145.958 86.1524 147.772 78.3762 147.767ZM120.025 125.4C111.9 130.748 102.371 133.597 92.6246 133.592C65.1199 133.592 42.7504 111.332 42.7504 83.9736C42.7457 74.2774 45.6086 64.7975 50.9848 56.7134C59.1106 51.3695 68.6347 48.5213 78.3762 48.5307C105.881 48.5307 128.25 70.79 128.25 98.1489C128.26 107.84 125.397 117.316 120.025 125.4Z" fill="#369cc5"/>
</svg>
